<mxfile host="Electron" modified="2025-01-06T19:18:36.899Z" agent="Mozilla/5.0 (Macintosh; Intel Mac OS X 10_15_7) AppleWebKit/537.36 (KHTML, like Gecko) draw.io/24.4.8 Chrome/124.0.6367.207 Electron/30.0.6 Safari/537.36" etag="aWO1QNTatNjrLFzRXLpb" version="24.4.8" type="device">
  <diagram name="Страница — 1" id="M_9aOFABiwCSObLS5C-2">
    <mxGraphModel dx="1242" dy="907" grid="1" gridSize="10" guides="1" tooltips="1" connect="1" arrows="1" fold="1" page="1" pageScale="1" pageWidth="827" pageHeight="1169" math="0" shadow="0">
      <root>
        <mxCell id="0" />
        <mxCell id="1" parent="0" />
        <mxCell id="bYTFRtONIOl5rvXJ5vdI-70" value="" style="rounded=0;whiteSpace=wrap;html=1;strokeColor=none;fillColor=none;" parent="1" vertex="1">
          <mxGeometry x="250" y="70" width="420" height="280" as="geometry" />
        </mxCell>
        <mxCell id="bYTFRtONIOl5rvXJ5vdI-8" value="" style="group" parent="1" vertex="1" connectable="0">
          <mxGeometry x="385" y="130" width="50" height="50" as="geometry" />
        </mxCell>
        <mxCell id="bYTFRtONIOl5rvXJ5vdI-4" value="" style="verticalLabelPosition=bottom;verticalAlign=top;html=1;shape=mxgraph.basic.acute_triangle;dx=0.5;fillColor=#d5e8d4;strokeColor=#82b366;" parent="bYTFRtONIOl5rvXJ5vdI-8" vertex="1">
          <mxGeometry width="50" height="50" as="geometry" />
        </mxCell>
        <mxCell id="bYTFRtONIOl5rvXJ5vdI-7" value="M2" style="text;html=1;align=center;verticalAlign=middle;whiteSpace=wrap;rounded=0;" parent="bYTFRtONIOl5rvXJ5vdI-8" vertex="1">
          <mxGeometry x="5" y="20" width="40" height="30" as="geometry" />
        </mxCell>
        <mxCell id="bYTFRtONIOl5rvXJ5vdI-5" style="edgeStyle=orthogonalEdgeStyle;rounded=0;orthogonalLoop=1;jettySize=auto;html=1;exitX=1;exitY=0.5;exitDx=0;exitDy=0;endArrow=none;endFill=0;" parent="1" source="bYTFRtONIOl5rvXJ5vdI-1" edge="1">
          <mxGeometry relative="1" as="geometry">
            <mxPoint x="410" y="210" as="targetPoint" />
          </mxGeometry>
        </mxCell>
        <mxCell id="bYTFRtONIOl5rvXJ5vdI-1" value="G2" style="ellipse;whiteSpace=wrap;html=1;aspect=fixed;fillColor=#dae8fc;strokeColor=#6c8ebf;" parent="1" vertex="1">
          <mxGeometry x="340" y="190" width="40" height="40" as="geometry" />
        </mxCell>
        <mxCell id="bYTFRtONIOl5rvXJ5vdI-2" value="P" style="whiteSpace=wrap;html=1;aspect=fixed;fillColor=#fff2cc;strokeColor=#d6b656;" parent="1" vertex="1">
          <mxGeometry x="390" y="240" width="40" height="40" as="geometry" />
        </mxCell>
        <mxCell id="bYTFRtONIOl5rvXJ5vdI-6" style="edgeStyle=orthogonalEdgeStyle;rounded=0;orthogonalLoop=1;jettySize=auto;html=1;exitX=0.5;exitY=1;exitDx=0;exitDy=0;exitPerimeter=0;entryX=0.5;entryY=0;entryDx=0;entryDy=0;endArrow=none;endFill=0;" parent="1" source="bYTFRtONIOl5rvXJ5vdI-4" target="bYTFRtONIOl5rvXJ5vdI-2" edge="1">
          <mxGeometry relative="1" as="geometry" />
        </mxCell>
        <mxCell id="bYTFRtONIOl5rvXJ5vdI-9" value="" style="endArrow=none;html=1;rounded=0;exitX=1;exitY=0.5;exitDx=0;exitDy=0;" parent="1" source="bYTFRtONIOl5rvXJ5vdI-2" edge="1">
          <mxGeometry width="50" height="50" relative="1" as="geometry">
            <mxPoint x="560" y="360" as="sourcePoint" />
            <mxPoint x="580" y="260" as="targetPoint" />
          </mxGeometry>
        </mxCell>
        <mxCell id="bYTFRtONIOl5rvXJ5vdI-13" style="edgeStyle=orthogonalEdgeStyle;rounded=0;orthogonalLoop=1;jettySize=auto;html=1;exitX=0.5;exitY=0;exitDx=0;exitDy=0;endArrow=none;endFill=0;" parent="1" source="bYTFRtONIOl5rvXJ5vdI-10" edge="1">
          <mxGeometry relative="1" as="geometry">
            <mxPoint x="460" y="260" as="targetPoint" />
          </mxGeometry>
        </mxCell>
        <mxCell id="bYTFRtONIOl5rvXJ5vdI-10" value="G3" style="ellipse;whiteSpace=wrap;html=1;aspect=fixed;fillColor=#dae8fc;strokeColor=#6c8ebf;" parent="1" vertex="1">
          <mxGeometry x="440" y="280" width="40" height="40" as="geometry" />
        </mxCell>
        <mxCell id="bYTFRtONIOl5rvXJ5vdI-14" style="edgeStyle=orthogonalEdgeStyle;rounded=0;orthogonalLoop=1;jettySize=auto;html=1;exitX=0.5;exitY=0;exitDx=0;exitDy=0;endArrow=none;endFill=0;" parent="1" source="bYTFRtONIOl5rvXJ5vdI-11" edge="1">
          <mxGeometry relative="1" as="geometry">
            <mxPoint x="510" y="260" as="targetPoint" />
          </mxGeometry>
        </mxCell>
        <mxCell id="bYTFRtONIOl5rvXJ5vdI-11" value="G4" style="ellipse;whiteSpace=wrap;html=1;aspect=fixed;fillColor=#dae8fc;strokeColor=#6c8ebf;" parent="1" vertex="1">
          <mxGeometry x="490" y="280" width="40" height="40" as="geometry" />
        </mxCell>
        <mxCell id="bYTFRtONIOl5rvXJ5vdI-12" value="G1" style="ellipse;whiteSpace=wrap;html=1;aspect=fixed;fillColor=#dae8fc;strokeColor=#6c8ebf;" parent="1" vertex="1">
          <mxGeometry x="275" y="210" width="40" height="40" as="geometry" />
        </mxCell>
        <mxCell id="bYTFRtONIOl5rvXJ5vdI-16" value="Local Run Queue (LRQ)" style="text;html=1;align=center;verticalAlign=middle;whiteSpace=wrap;rounded=0;" parent="1" vertex="1">
          <mxGeometry x="435" y="230" width="145" height="30" as="geometry" />
        </mxCell>
        <mxCell id="bYTFRtONIOl5rvXJ5vdI-32" value="" style="verticalLabelPosition=bottom;verticalAlign=top;html=1;shape=mxgraph.basic.polygon;polyCoords=[[0.25,0],[0.75,0],[1,0.25],[1,0.75],[0.75,1],[0.25,1],[0,0.75],[0,0.25]];polyline=0;" parent="1" vertex="1">
          <mxGeometry x="485" y="130" width="50" height="50" as="geometry" />
        </mxCell>
        <mxCell id="bYTFRtONIOl5rvXJ5vdI-35" value="" style="endArrow=none;html=1;rounded=0;exitX=0;exitY=0;exitDx=37.5;exitDy=25;exitPerimeter=0;" parent="1" source="bYTFRtONIOl5rvXJ5vdI-4" target="bYTFRtONIOl5rvXJ5vdI-32" edge="1">
          <mxGeometry width="50" height="50" relative="1" as="geometry">
            <mxPoint x="450" y="170" as="sourcePoint" />
            <mxPoint x="460" y="140" as="targetPoint" />
          </mxGeometry>
        </mxCell>
        <mxCell id="bYTFRtONIOl5rvXJ5vdI-37" value="Core" style="text;html=1;align=center;verticalAlign=middle;whiteSpace=wrap;rounded=0;" parent="1" vertex="1">
          <mxGeometry x="490" y="140" width="40" height="30" as="geometry" />
        </mxCell>
        <mxCell id="bYTFRtONIOl5rvXJ5vdI-69" value="The M is moved off the P with blocking G still attached. A new M is brought in and now G2 is context-switched." style="text;html=1;align=center;verticalAlign=middle;whiteSpace=wrap;rounded=0;" parent="1" vertex="1">
          <mxGeometry x="301" y="90" width="359" height="30" as="geometry" />
        </mxCell>
        <mxCell id="sUMF9HvB22PjmmUqFMvX-1" value="" style="group" parent="1" vertex="1" connectable="0">
          <mxGeometry x="270" y="130" width="50" height="50" as="geometry" />
        </mxCell>
        <mxCell id="sUMF9HvB22PjmmUqFMvX-2" value="" style="verticalLabelPosition=bottom;verticalAlign=top;html=1;shape=mxgraph.basic.acute_triangle;dx=0.5;fillColor=#d5e8d4;strokeColor=#82b366;" parent="sUMF9HvB22PjmmUqFMvX-1" vertex="1">
          <mxGeometry width="50" height="50" as="geometry" />
        </mxCell>
        <mxCell id="sUMF9HvB22PjmmUqFMvX-3" value="M1" style="text;html=1;align=center;verticalAlign=middle;whiteSpace=wrap;rounded=0;" parent="sUMF9HvB22PjmmUqFMvX-1" vertex="1">
          <mxGeometry x="5" y="20" width="40" height="30" as="geometry" />
        </mxCell>
        <mxCell id="sUMF9HvB22PjmmUqFMvX-5" value="" style="endArrow=none;html=1;rounded=0;" parent="1" edge="1">
          <mxGeometry width="50" height="50" relative="1" as="geometry">
            <mxPoint x="295" y="210" as="sourcePoint" />
            <mxPoint x="294.91" y="180.04" as="targetPoint" />
          </mxGeometry>
        </mxCell>
      </root>
    </mxGraphModel>
  </diagram>
</mxfile>
